#!OML:ASF G:\JayActor3\Patient Classification 1\Patient 1\Session 5\male.ASF
:FULLY-SPECIFIED
:DEGREES
993
root 13.1905 17.064 3.49916 -176.804 37.9326 -177.376
lowerback 6.06017 -1.07018 4.44966
upperback 1.02602 -1.0794 0.391374
thorax -2.41527 -0.551548 -2.00702
lowerneck 0.332437 4.27946 5.73198
upperneck 4.51531 5.84083 -3.14008
head 1.64596 2.98365 -1.88566
rclavicle 9.99763e-014 -1.08338e-014
rhumerus -34.8252 -16.4028 -83.4042
rradius 16.9508
rwrist 18.0054
rhand -21.9027 -5.73519
rfingers 7.12502
rthumb 4.50274 -35.6673
lclavicle 9.99763e-014 -1.08338e-014
lhumerus -27.0129 -14.8924 98.0894
lradius 7.0894
lwrist 33.2387
lhand -28.5241 15.5207
lfingers 7.12502
lthumb -1.89211 45.4921
rfemur -12.0461 9.84383 25.2011
rtibia 32.2268
rfoot -18.4709 -9.21929
rtoes 2.35539
lfemur -0.752996 2.67478 -18.5176
ltibia 14.4278
lfoot -11.353 -0.145929
ltoes -6.39113
994
root 13.2101 17.0657 3.49038 -176.857 36.9709 -177.421
lowerback 5.99036 -1.05965 4.48831
upperback 1.01747 -1.0659 0.406208
thorax -2.3846 -0.544536 -2.01545
lowerneck 0.299089 4.34901 5.8141
upperneck 4.61193 5.93859 -3.22302
head 1.69433 3.03396 -1.92376
rclavicle -6.5102e-015 4.96962e-015
rhumerus -34.8425 -16.4473 -83.3709
rradius 16.96
rwrist 17.9865
rhand -21.9476 -5.74014
rfingers 7.12502
rthumb 4.4594 -35.6732
lclavicle -6.5102e-015 4.96962e-015
lhumerus -27.106 -15.814 98.6072
lradius 7.06909
lwrist 34.142
lhand -28.668 15.5726
lfingers 7.12502
lthumb -2.03106 45.5427
rfemur -11.8999 9.89978 25.1743
rtibia 32.2528
rfoot -18.5217 -9.25845
rtoes 2.15273
lfemur -0.880936 2.64951 -18.5728
ltibia 14.581
lfoot -11.3206 -0.157669
ltoes -6.55907
995
root 13.2295 17.0668 3.48199 -176.904 36.005 -177.463
lowerback 5.92114 -1.04994 4.52207
upperback 1.00795 -1.05385 0.420673
thorax -2.35525 -0.538257 -2.02136
lowerneck 0.264054 4.40275 5.88406
upperneck 4.70417 6.01471 -3.2935
head 1.73979 3.07339 -1.95609
rclavicle -3.02401e-014 3.77691e-015
rhumerus -34.8557 -16.4748 -83.3451
rradius 16.974
rwrist 17.9589
rhand -21.9931 -5.74641
rfingers 7.12502
rthumb 4.41545 -35.6804
lclavicle -3.02401e-014 3.77691e-015
lhumerus -27.2141 -16.7358 99.1281
lradius 7.04188
lwrist 35.0606
lhand -28.8116 15.6187
lfingers 7.12502
lthumb -2.16974 45.5874
rfemur -11.7541 9.94144 25.1519
rtibia 32.2735
rfoot -18.5877 -9.28359
rtoes 2.01476
lfemur -1.0087 2.63864 -18.6261
ltibia 14.7295
lfoot -11.3011 -0.172287
ltoes -6.69989
996
root 13.2487 17.0673 3.474 -176.947 35.0384 -177.504
lowerback 5.85257 -1.04061 4.5499
upperback 0.998271 -1.04275 0.434609
thorax -2.32639 -0.532423 -2.02437
lowerneck 0.225809 4.44 5.93982
upperneck 4.79118 6.06801 -3.34979
head 1.78202 3.1013 -1.98174
rclavicle -5.61815e-014 1.68967e-015
rhumerus -34.8634 -16.4903 -83.3255
rradius 16.9916
rwrist 17.9292
rhand -22.0406 -5.75402
rfingers 7.12502
rthumb 4.36961 -35.6889
lclavicle -5.61815e-014 1.68967e-015
lhumerus -27.336 -17.6559 99.651
lradius 7.00805
lwrist 35.9914
lhand -28.9571 15.6618
lfingers 7.12502
lthumb -2.31027 45.6291
rfemur -11.6098 9.9685 25.1336
rtibia 32.2896
rfoot -18.6695 -9.29834
rtoes 1.93656
lfemur -1.13584 2.64441 -18.6776
ltibia 14.8726
lfoot -11.2951 -0.193294
ltoes -6.81737
997
root 13.2677 17.067 3.46645 -176.986 34.0748 -177.544
lowerback 5.78649 -1.03182 4.57096
upperback 0.988526 -1.03273 0.447414
thorax -2.29896 -0.527118 -2.02463
lowerneck 0.18538 4.46139 5.98263
upperneck 4.8714 6.09937 -3.39373
head 1.82041 3.11811 -2.00156
rclavicle -5.60324e-015 -8.74653e-015
rhumerus -34.8659 -16.4923 -83.313
rradius 17.0136
rwrist 17.8963
rhand -22.091 -5.76233
rfingers 7.12502
rthumb 4.32094 -35.6982
lclavicle -5.60324e-015 -8.74653e-015
lhumerus -27.4716 -18.5709 100.174
lradius 6.9674
lwrist 36.9326
lhand -29.1056 15.704
lfingers 7.12502
lthumb -2.45366 45.6696
rfemur -11.4672 9.98213 25.1187
rtibia 32.3019
rfoot -18.7688 -9.3066
rtoes 1.91094
lfemur -1.2606 2.66727 -18.7277
ltibia 15.0087
lfoot -11.303 -0.224661
ltoes -6.9059
998
root 13.2864 17.0661 3.45933 -177.021 33.1175 -177.583
lowerback 5.72384 -1.02368 4.58607
upperback 0.978685 -1.02386 0.45893
thorax -2.27355 -0.522393 -2.02272
lowerneck 0.143136 4.46747 6.0122
upperneck 4.94371 6.10944 -3.42532
head 1.85447 3.12412 -2.01552
rclavicle 4.29002e-014 -1.17283e-014
rhumerus -34.8626 -16.4827 -83.3068
rradius 17.0395
rwrist 17.8619
rhand -22.1399 -5.77201
rfingers 7.12502
rthumb 4.27367 -35.7089
lclavicle 4.29002e-014 -1.17283e-014
lhumerus -27.6202 -19.4778 100.696
lradius 6.9191
lwrist 37.8787
lhand -29.2514 15.7398
lfingers 7.12502
lthumb -2.59453 45.7037
rfemur -11.3275 9.98031 25.1073
rtibia 32.3106
rfoot -18.8862 -9.30933
rtoes 1.94385
lfemur -1.38297 2.70651 -18.7759
ltibia 15.1375
lfoot -11.3246 -0.269385
ltoes -6.95565
999
root 13.3046 17.0645 3.45263 -177.052 32.1701 -177.622
lowerback 5.66508 -1.01617 4.59487
upperback 0.968968 -1.01606 0.469032
thorax -2.25016 -0.51821 -2.01858
lowerneck 0.0982108 4.459 6.02893
upperneck 5.00857 6.09922 -3.44549
head 1.88458 3.11981 -2.02396
rclavicle -5.95609e-014 2.55438e-014
rhumerus -34.8528 -16.4555 -83.3094
rradius 17.0701
rwrist 17.819
rhand -22.1889 -5.78226
rfingers 7.12502
rthumb 4.22632 -35.7201
lclavicle -5.95609e-014 2.55438e-014
lhumerus -27.7809 -20.3736 101.215
lradius 6.86124
lwrist 38.8236
lhand -29.3915 15.7691
lfingers 7.12502
lthumb -2.72981 45.7314
rfemur -11.1909 9.96297 25.0987
rtibia 32.3159
rfoot -19.0209 -9.31444
rtoes 2.02045
lfemur -1.50234 2.7609 -18.8229
ltibia 15.2581
lfoot -11.3598 -0.328402
ltoes -6.97086
1000
root 13.3225 17.0622 3.44638 -177.077 31.2352 -177.66
lowerback 5.61024 -1.00968 4.59817
upperback 0.959391 -1.00979 0.47844
thorax -2.22884 -0.514793 -2.0119
lowerneck 0.0515738 4.43735 6.0334
upperneck 5.06486 6.07057 -3.45575
head 1.91033 3.10609 -2.02747
rclavicle 1.35049e-014 -1.90833e-014
rhumerus -34.8366 -16.4178 -83.3173
rradius 17.1045
rwrist 17.7739
rhand -22.2341 -5.79219
rfingers 7.12502
rthumb 4.18273 -35.7309
lclavicle 1.35049e-014 -1.90833e-014
lhumerus -27.9545 -21.2542 101.73
lradius 6.79896
lwrist 39.7703
lhand -29.5319 15.7946
lfingers 7.12502
lthumb -2.8654 45.7551
rfemur -11.0583 9.93267 25.0952
rtibia 32.3173
rfoot -19.1741 -9.32653
rtoes 2.14047
lfemur -1.61973 2.83235 -18.8658
ltibia 15.3708
lfoot -11.4077 -0.406425
ltoes -6.95578
1001
root 13.34 17.0593 3.44048 -177.098 30.3175 -177.697
lowerback 5.5585 -1.00357 4.59739
upperback 0.950298 -1.00414 0.486733
thorax -2.20874 -0.511682 -2.00399
lowerneck 0.00278043 4.40308 6.02464
upperneck 5.11322 6.0242 -3.45481
head 1.93197 3.08332 -2.02541
rclavicle -3.59552e-014 -3.97569e-016
rhumerus -34.8144 -16.3682 -83.3316
rradius 17.1431
rwrist 17.725
rhand -22.278 -5.80209
rfingers 7.12502
rthumb 4.14035 -35.7416
lclavicle -3.59552e-014 -3.97569e-016
lhumerus -28.1401 -22.1175 102.241
lradius 6.73142
lwrist 40.7147
lhand -29.6716 15.816
lfingers 7.12502
lthumb -3.00031 45.7746
rfemur -10.9303 9.88863 25.0961
rtibia 32.3145
rfoot -19.3456 -9.34456
rtoes 2.30334
lfemur -1.73424 2.91826 -18.9053
ltibia 15.4749
lfoot -11.4677 -0.50203
ltoes -6.90192
1002
root 13.357 17.0558 3.43493 -177.112 29.4187 -177.731
lowerback 5.50969 -0.997852 4.59206
upperback 0.941639 -0.99914 0.494836
thorax -2.1898 -0.508878 -1.99364
lowerneck -0.0479508 4.35738 6.00437
upperneck 5.15369 5.96176 -3.44466
head 1.94972 3.0523 -2.01874
rclavicle -3.77442e-014 1.47101e-014
rhumerus -34.7859 -16.3045 -83.3523
rradius 17.1862
rwrist 17.6683
rhand -22.3202 -5.81416
rfingers 7.12502
rthumb 4.0996 -35.7545
lclavicle -3.77442e-014 1.47101e-014
lhumerus -28.3366 -22.9612 102.747
lradius 6.65867
lwrist 41.6551
lhand -29.8081 15.8317
lfingers 7.12502
lthumb -3.13214 45.7885
rfemur -10.8071 9.83246 25.1024
rtibia 32.3068
rfoot -19.5342 -9.37456
rtoes 2.49618
lfemur -1.84663 3.01809 -18.9402
ltibia 15.5703
lfoot -11.5383 -0.61793
ltoes -6.80826
